<?xml version="1.0" encoding="utf-8"?>
<!-- Generator: Adobe Illustrator 25.3.1, SVG Export Plug-In . SVG Version: 6.00 Build 0)  -->
<!DOCTYPE svg PUBLIC "-//W3C//DTD SVG 1.1//EN" "http://www.w3.org/Graphics/SVG/1.1/DTD/svg11.dtd" [
	<!ENTITY ns_extend "http://ns.adobe.com/Extensibility/1.0/">
	<!ENTITY ns_ai "http://ns.adobe.com/AdobeIllustrator/10.0/">
	<!ENTITY ns_graphs "http://ns.adobe.com/Graphs/1.0/">
	<!ENTITY ns_vars "http://ns.adobe.com/Variables/1.0/">
	<!ENTITY ns_imrep "http://ns.adobe.com/ImageReplacement/1.0/">
	<!ENTITY ns_sfw "http://ns.adobe.com/SaveForWeb/1.0/">
	<!ENTITY ns_custom "http://ns.adobe.com/GenericCustomNamespace/1.0/">
	<!ENTITY ns_adobe_xpath "http://ns.adobe.com/XPath/1.0/">
]>
<svg version="1.1" id="Calque_1" xmlns:x="&ns_extend;" xmlns:i="&ns_ai;" xmlns:graph="&ns_graphs;"
	 xmlns="http://www.w3.org/2000/svg" xmlns:xlink="http://www.w3.org/1999/xlink" x="0px" y="0px" viewBox="0 0 1648.7 313.1"
	 style="enable-background:new 0 0 1648.7 313.1;" xml:space="preserve">
<style type="text/css">
	.st0{fill:#FD3503;}
	.st1{fill:#5A5A5A;}
</style>
<metadata>
	<sfw  xmlns="&ns_sfw;">
		<slices></slices>
		<sliceSourceBounds  bottomLeftOrigin="true" height="291.7" width="1619.4" x="-524.9" y="307.8"></sliceSourceBounds>
		<optimizationSettings>
			<targetSettings  fileFormat="PNG24Format" targetSettingsID="0">
				<PNG24Format  filtered="false" interlaced="false" matteColor="#FFFFFF" noMatteColor="false" transparency="true">
					</PNG24Format>
			</targetSettings>
		</optimizationSettings>
	</sfw>
</metadata>
<g>
	<g id="XMLID_1_">
		<g>
			<path class="st0" d="M1631.5,86.5c0.5,0,0.9,0.1,2.5,0.3c-56.2,28-111.4,55.6-167.3,83.5c55.8,42.4,111,84.4,166.2,126.3
				c-0.8,1.2-1.8,0.8-2.6,0.8c-13.6,0-27.2,0-40.8,0.1c-2.1,0-3.8-0.6-5.5-1.9c-47.2-36.1-94.5-72.1-141.8-108.1
				c-2.1-1.6-3.7-2-6.3-0.7c-18.6,9.7-37.3,19.2-56,28.6c-2.6,1.3-3.6,2.7-3.6,5.6c0.1,24.2,0,48.4,0.1,72.7c0,2.9-0.7,3.9-3.7,3.8
				c-8-0.2-16-0.3-24,0c-3.5,0.1-4-1.1-4-4.2c0.1-38.1,0.1-76.2,0.1-114.3c0-54.6,0-109.1-0.1-163.7c0-3.5,0.7-4.8,4.4-4.6
				c7.7,0.3,15.5,0.3,23.2,0c3.5-0.1,4.1,1.1,4.1,4.3c-0.1,55.6-0.1,111.1-0.1,166.7c0,4.8,0,4.8,4.2,2.6c41-21.2,82-42.4,123-63.7
				c21.6-11.2,43.2-22.4,64.8-33.6c1.3-0.7,2.7-1.3,4.2-1.3C1592.3,86,1611.9,86.3,1631.5,86.5z"/>
			<path class="st1" d="M1244.1,294.2c0,2.9-0.7,3.9-3.7,3.8c-8.1-0.2-16.2-0.2-24.4,0c-2.9,0.1-3.6-0.9-3.5-3.7
				c0.2-8.9,0.1-17.7,0.1-26.6c0-1.2,0-2.4,0-4.8c-6.6,6.1-12.5,11.2-19.2,15.4c-18.5,11.9-39,18.4-60.6,21.4
				c-12.8,1.8-25.6,2.9-38.5,2.6c-32-0.9-62.8-6.5-90.5-23.7c-35-21.6-50.1-53.3-46.9-93.9c3-37.4,23.4-62.6,55.6-79.7
				c23.4-12.4,48.7-17.5,74.9-18.8c24.3-1.1,48.4,0.5,72,7.2c18.9,5.4,36,14.1,50.4,27.6c0.6,0.6,1.1,1.4,2.2,1.3
				c1-1.2,0.5-2.6,0.5-3.9c0-9.5,0.1-19,0-28.5c0-2.5,0.7-3.2,3.2-3.2c8.2,0.1,16.5,0.2,24.7,0c3.1-0.1,3.7,1,3.7,3.8
				c-0.1,42.8-0.1,85.7-0.1,128.5C1244.1,244.2,1244,269.2,1244.1,294.2z M1199.5,235.9c12.1-16.2,14.7-34.6,12.2-54
				c-1.6-12.6-6.1-24.1-14.2-34.1c-11.9-14.7-27.9-23.3-45.6-28.7c-25.5-7.8-51.6-8.9-77.8-5.9c-19.7,2.3-38,8.7-54.7,19.9
				c-35,23.4-38.6,66.3-25,95c8.2,17.3,22.5,28.4,39.4,36.2c20.1,9.4,41.5,12.1,62.7,12.3c23.2-0.1,45-3.4,65.6-12.8
				C1176.6,257.3,1189.8,248.8,1199.5,235.9z"/>
			<path class="st1" d="M893.4,108.1c0.1,3-0.9,3.7-3.8,3.7c-19.5,0-38.6,2.2-57.1,8.7c-32,11.3-50.8,34.1-57.8,66.9
				c-1.8,8.3-2.4,16.8-2.5,25.3c0,27,0,54,0.1,80.9c0,2.9-0.6,3.9-3.7,3.8c-8.1-0.2-16.2-0.2-24.4,0c-3,0.1-3.7-0.9-3.7-3.8
				c0.1-53,0.1-105.9,0.1-158.9c0-13.5,0.1-27-0.1-40.5c0-3,0.8-3.8,3.8-3.8c8.2,0.2,16.5,0.1,24.7,0c2.5,0,3.3,0.7,3.2,3.2
				c-0.1,8.7-0.1,17.5,0,26.2c0,0.6,0.1,1.2,0.2,2.1c24.1-20.8,52.5-29.7,82.8-33.7c11.5-1.6,23.1-2.2,34.7-2.4
				c2.6,0,3.5,0.7,3.4,3.3C893.2,95.6,893.2,101.9,893.4,108.1z"/>
			<path class="st1" d="M647.5,144.8c21.4,35.7,20.1,96.5-29.3,129.2c-21.8,14.4-45.8,22.3-71.5,25.9c-13.1,1.8-26.3,2.9-39.6,2.5
				c-29.8-0.8-58.9-5.2-86-18.5c-20.5-10.1-37.9-23.9-48.3-44.8c-19-38.2-15.2-97.2,37.9-128.2c26.3-15.4,54.7-22.5,84.8-24.4
				c3-0.2,6-0.4,9-0.5c2.6-0.1,5.2,0,7.9,0c28.6,0.2,56.5,3.8,82.9,15.5C616.6,111.1,635.2,124.2,647.5,144.8z M586.2,260.5
				c29-15.1,44.8-38.1,42.8-71.7c-1.3-22.2-11-39.8-28.9-53c-12.2-9-25.9-14.8-40.6-18.6c-20-5.1-40.4-6.2-61-5.1
				c-19.2,1-37.9,4.5-55.6,12.3c-26.8,11.9-45.6,30.4-48.8,61.1c-1.8,17.2,0.9,33.6,10.8,48.3c10.3,15.4,25.1,24.7,41.8,31.6
				c20.6,8.5,42.3,11.2,66.8,11.3c4,0.2,10.4-0.3,16.7-0.9C549.9,274.1,568.7,269.6,586.2,260.5z"/>
			<path class="st1" d="M293.2,227.4c2.8,0.8,2.8,1.9,1.9,4.2c-10.1,27.2-28.7,46.1-55.6,56.9c-22,8.9-45.1,12.6-68.7,13.5
				c-25.9,1-51.4-1.4-76.2-9c-18.4-5.6-35.5-14-50.1-26.9c-15.6-13.7-25.1-30.8-28.4-51.3c-4.1-25.9-0.1-50.3,14-72.6
				c10.5-16.5,25.5-27.9,42.7-36.6c24.5-12.4,50.8-17.5,78-19.1c5.3-0.3,10.7,0,16.1,0c25.1-0.4,49.8,2.5,73.3,12.2
				c24.5,10.1,41.6,27.4,51.8,51.8c1,2.4,0.9,3.7-1.9,4.6c-8,2.6-15.8,5.4-23.7,8.2c-1.9,0.7-2.9,0.5-3.6-1.5
				c-9.9-25.7-29.1-40.7-55.7-46c-34.1-6.8-68.1-5.8-101.3,5.1c-18.2,6-34.3,15.7-45.9,31.4C39.3,180.2,36.2,235.7,85,260.7
				c18.8,9.6,38.9,13.9,59.8,15.3c24.8,1.7,49.1-0.2,72.8-8c23.5-7.7,40.1-22.2,47.5-46.3c0.6-2.1,1.4-2.5,3.4-1.8
				C276.7,222.5,284.9,225.1,293.2,227.4z"/>
		</g>
		<g>
		</g>
	</g>
</g>
</svg>
